<svg xmlns="http://www.w3.org/2000/svg" width="176" height="40" fill="none" viewBox="0 0 176 40"><path fill="#fff" d="M82.968 10c-2.067 0-4.087.616-5.806 1.77a10.5 10.5 0 0 0-3.85 4.71 10.54 10.54 0 0 0-.594 6.065 10.5 10.5 0 0 0 2.86 5.375 10.44 10.44 0 0 0 5.351 2.872c2.028.406 4.13.198 6.039-.597a10.46 10.46 0 0 0 4.69-3.866 10.53 10.53 0 0 0-1.3-13.254A10.43 10.43 0 0 0 82.968 10m0 16.044a5.5 5.5 0 0 1-3.068-.936 5.54 5.54 0 0 1-2.033-2.49 5.57 5.57 0 0 1 1.2-6.045 5.5 5.5 0 0 1 6.02-1.2 5.53 5.53 0 0 1 2.477 2.044 5.564 5.564 0 0 1-.69 7.004 5.52 5.52 0 0 1-3.906 1.623M165.55 10c-2.067 0-4.088.616-5.806 1.77a10.5 10.5 0 0 0-3.85 4.71 10.53 10.53 0 0 0 2.266 11.44 10.44 10.44 0 0 0 5.351 2.872c2.027.406 4.129.198 6.038-.597a10.46 10.46 0 0 0 4.691-3.866 10.53 10.53 0 0 0-1.3-13.254 10.5 10.5 0 0 0-3.391-2.276A10.4 10.4 0 0 0 165.55 10m0 16.044a5.5 5.5 0 0 1-3.069-.935 5.54 5.54 0 0 1-2.034-2.49 5.57 5.57 0 0 1 1.198-6.045 5.5 5.5 0 0 1 6.02-1.2 5.53 5.53 0 0 1 2.478 2.043 5.565 5.565 0 0 1-.688 7.002 5.5 5.5 0 0 1-3.903 1.625zM111.501 24.5l-.001.001c-.001 3.207-2.476 6.53-7.629 6.496-4.296-.023-6.807-2.272-8.028-4.33a.385.385 0 0 1 .144-.53l2.884-1.671c.196-.114.446-.04.575.147.964 1.399 2.881 2.117 4.323 2.124 1.758 0 2.659-.758 2.659-1.8 0-.883-.599-1.606-2.116-1.928l-2.597-.602c-3.794-.842-5.51-3.128-5.51-5.894 0-3.53 3.114-6.457 7.348-6.46 4.159 0 6.116 2.07 7.192 4.009a.39.39 0 0 1-.151.525l-3.43 1.976a.395.395 0 0 1-.533-.132c-.677-1.081-1.431-2.309-3.032-2.326-1.394-.016-2.515.843-2.515 1.967 0 .961.717 1.563 1.795 1.764l2.787.601c3.878.807 5.836 3.174 5.836 6.062zm19.405-14.131a.4.4 0 0 1 .4.4v11.83a8.42 8.42 0 0 1-2.449 5.938 8.34 8.34 0 0 1-5.912 2.46 8.34 8.34 0 0 1-5.912-2.46 8.42 8.42 0 0 1-2.449-5.938v-11.83a.4.4 0 0 1 .4-.4h4.078a.4.4 0 0 1 .4.4v11.865c0 .928.367 1.818 1.02 2.474a3.474 3.474 0 0 0 4.927 0 3.5 3.5 0 0 0 1.02-2.474V10.769a.4.4 0 0 1 .4-.4zm-64.878 13.23a.424.424 0 0 1 .56-.142l3.584 2.064c.191.11.258.354.141.541a10.46 10.46 0 0 1-4.841 4.125 10.4 10.4 0 0 1-6.71.455 10.45 10.45 0 0 1-5.598-3.747A10.53 10.53 0 0 1 51 20.498c0-2.313.76-4.562 2.164-6.396a10.45 10.45 0 0 1 5.597-3.747 10.4 10.4 0 0 1 6.711.454 10.46 10.46 0 0 1 4.841 4.125.39.39 0 0 1-.14.541l-3.585 2.064a.424.424 0 0 1-.56-.14 5.53 5.53 0 0 0-2.455-2.022 5.5 5.5 0 0 0-3.549-.242 5.52 5.52 0 0 0-2.96 1.981 5.565 5.565 0 0 0 0 6.764 5.52 5.52 0 0 0 2.96 1.981 5.5 5.5 0 0 0 3.549-.241 5.53 5.53 0 0 0 2.455-2.022m69.483 7.002c0 .22.179.4.4.4h4.077a.4.4 0 0 0 .4-.4V15.636a.4.4 0 0 1 .4-.4h3.522c.924 0 1.81.368 2.463 1.025a3.5 3.5 0 0 1 1.021 2.474V30.6c0 .22.179.4.4.4h4.077a.4.4 0 0 0 .4-.4V18.77a8.42 8.42 0 0 0-2.449-5.938 8.34 8.34 0 0 0-5.912-2.46l-8.403.066a.4.4 0 0 0-.396.4zM19.808 0c-1.041 0-1.969 0-2.739.063-.821.067-1.68.218-2.52.645a6.5 6.5 0 0 0-2.84 2.841c-.428.84-.579 1.699-.646 2.52C11 6.84 11 7.767 11 8.81v11.383c0 1.041 0 1.969.063 2.739.067.821.218 1.68.646 2.52a6.5 6.5 0 0 0 2.84 2.84c.84.428 1.699.58 2.52.646.77.063 1.698.063 2.74.063H21.6a.4.4 0 0 0 .4-.4v-4.2a.4.4 0 0 0-.4-.4h-1.7c-1.161 0-1.882-.002-2.423-.046-.51-.042-.64-.108-.658-.117a1.5 1.5 0 0 1-.655-.656c-.01-.018-.076-.148-.118-.657C16.002 21.982 16 21.26 16 20.1V8.9c0-1.161.002-1.882.046-2.424.042-.509.108-.639.117-.657a1.5 1.5 0 0 1 .656-.655c.018-.01.149-.076.658-.118C18.018 5.002 18.739 5 19.9 5h11.2c1.161 0 1.882.002 2.424.046.509.042.639.108.657.117.282.144.512.374.656.656.009.018.075.148.117.657.044.542.046 1.263.046 2.424v11.2c0 1.161-.002 1.882-.046 2.424-.042.509-.108.639-.117.657a1.5 1.5 0 0 1-.656.656c-.018.009-.148.075-.657.117-.705.057-1.416.05-2.124.047a.4.4 0 0 0-.4.399v4.2c0 .22.18.4.4.4.844.003 1.69.006 2.53-.063.822-.067 1.682-.218 2.521-.646a6.5 6.5 0 0 0 2.84-2.84c.428-.84.58-1.699.646-2.52.063-.77.063-1.698.063-2.74V8.809c0-1.041 0-1.969-.063-2.739-.067-.821-.218-1.68-.645-2.52A6.5 6.5 0 0 0 36.45.71c-.839-.428-1.699-.58-2.52-.646C33.16 0 32.233 0 31.19 0z"/><path fill="#fff" d="M9 11.4a.4.4 0 0 0-.4-.4c-.844-.003-1.69-.006-2.53.063-.822.067-1.682.218-2.52.646a6.5 6.5 0 0 0-2.842 2.84c-.427.84-.578 1.699-.645 2.52C0 17.84 0 18.767 0 19.81v11.383c0 1.041 0 1.969.063 2.739.067.821.218 1.681.645 2.52a6.5 6.5 0 0 0 2.841 2.84c.84.428 1.699.58 2.52.646C6.84 40 7.767 40 8.81 40h11.383c1.041 0 1.969 0 2.739-.063.821-.067 1.68-.218 2.52-.645a6.5 6.5 0 0 0 2.84-2.841c.428-.839.58-1.699.646-2.52.063-.77.063-1.698.063-2.74V19.809c0-1.041 0-1.969-.063-2.739-.067-.821-.218-1.68-.646-2.52a6.5 6.5 0 0 0-2.84-2.84c-.84-.428-1.699-.579-2.52-.646C22.16 11 21.233 11 20.19 11H18.4a.4.4 0 0 0-.4.4v4.2c0 .221.18.4.4.4h1.7c1.161 0 1.882.002 2.424.046.509.042.639.108.657.117a1.5 1.5 0 0 1 .656.656c.009.018.075.149.117.658.044.541.046 1.262.046 2.423v11.2c0 1.161-.002 1.882-.046 2.424-.042.509-.108.639-.117.657a1.5 1.5 0 0 1-.656.656c-.018.009-.148.075-.657.117-.542.044-1.263.046-2.424.046H8.9c-1.161 0-1.882-.002-2.424-.046-.509-.042-.639-.108-.657-.117a1.5 1.5 0 0 1-.655-.656c-.01-.018-.076-.148-.118-.657C5.002 32.982 5 32.26 5 31.1V19.9c0-1.161.002-1.882.046-2.423.042-.51.108-.64.117-.658a1.5 1.5 0 0 1 .656-.655c.018-.01.148-.076.657-.118.705-.057 1.416-.05 2.124-.047A.4.4 0 0 0 9 15.6z"/></svg>