<svg viewBox="0 0 293 55" fill="none" xmlns="http://www.w3.org/2000/svg">
	<path
		d="M91.5432 11.2911H83.129V17.3196H91.5432V25.1535H83.129V50.9762H74.5537V25.1535H69.2666V17.3196H74.5537V3.42499H91.5432V11.2911Z"
		fill="black" />
	<path
		d="M123.562 46.7208C120.102 50.0951 115.793 51.7822 110.635 51.7822C105.498 51.7822 101.2 50.0951 97.7397 46.7208C94.2795 43.3466 92.5494 39.1556 92.5494 34.1479C92.5494 29.1188 94.2795 24.9278 97.7397 21.5751C101.2 18.2008 105.498 16.5137 110.635 16.5137C115.793 16.5137 120.102 18.2008 123.562 21.5751C127.023 24.9278 128.753 29.1188 128.753 34.1479C128.753 39.1556 127.023 43.3466 123.562 46.7208ZM104.058 40.789C105.821 42.5728 108.024 43.4648 110.667 43.4648C113.311 43.4648 115.503 42.5728 117.244 40.789C119.006 39.0052 119.887 36.7915 119.887 34.1479C119.887 31.5044 119.006 29.2907 117.244 27.5069C115.503 25.723 113.311 24.8311 110.667 24.8311C108.024 24.8311 105.821 25.723 104.058 27.5069C102.296 29.2907 101.415 31.5044 101.415 34.1479C101.415 36.7915 102.296 39.0052 104.058 40.789Z"
		fill="black" />
	<path
		d="M142.783 22.2521C145.384 18.5984 148.661 16.7716 152.616 16.7716V25.6371C149.5 25.6371 147.082 26.4753 145.362 28.1516C143.643 29.8065 142.783 32.0632 142.783 34.9216V50.9762H134.208V17.3196H142.783V22.2521Z"
		fill="black" />
	<path
		d="M190.341 34.2124C190.341 35.4375 190.255 36.4046 190.083 37.1138H163.326C163.906 39.2631 164.991 40.9824 166.582 42.2719C168.194 43.54 170.128 44.174 172.385 44.174C174.19 44.174 175.823 43.7979 177.285 43.0457C178.768 42.2934 179.843 41.3263 180.509 40.1442H189.664C188.439 43.6259 186.247 46.4414 183.088 48.5906C179.95 50.7183 176.339 51.7822 172.256 51.7822C167.098 51.7822 162.789 50.0951 159.328 46.7208C155.868 43.3466 154.138 39.1556 154.138 34.1479C154.138 29.1188 155.868 24.9278 159.328 21.5751C162.789 18.2008 167.087 16.5137 172.224 16.5137C177.382 16.5137 181.691 18.2008 185.151 21.5751C188.611 24.9278 190.341 29.1403 190.341 34.2124ZM177.801 25.895C176.21 24.6484 174.351 24.0252 172.224 24.0252C170.117 24.0252 168.269 24.6484 166.679 25.895C165.11 27.12 164.035 28.7642 163.455 30.8274H181.089C180.509 28.7642 179.413 27.12 177.801 25.895Z"
		fill="black" />
	<path
		d="M214.946 16.5137C218.901 16.5137 222.081 17.7065 224.488 20.0921C226.896 22.4562 228.099 25.6156 228.099 29.5701V50.9762H219.492V32.3426C219.492 30.0644 218.815 28.2484 217.461 26.8944C216.128 25.5189 214.366 24.8311 212.173 24.8311C209.788 24.8311 207.864 25.5404 206.403 26.9588C204.963 28.3558 204.243 30.2041 204.243 32.5038V50.9762H195.668V17.3196H204.243V21.4783C206.886 18.1686 210.454 16.5137 214.946 16.5137Z"
		fill="black" />
	<path
		d="M254.38 25.1535H246.063V43.1101H254.38V50.9762H237.487V25.1535H231.394V17.3196H237.487V7.39028H246.063V17.3196H254.38V25.1535Z"
		fill="black" />
	<path
		d="M287.56 46.7208C284.1 50.0951 279.791 51.7822 274.632 51.7822C269.496 51.7822 265.197 50.0951 261.737 46.7208C258.277 43.3466 256.547 39.1556 256.547 34.1479C256.547 29.1188 258.277 24.9278 261.737 21.5751C265.197 18.2008 269.496 16.5137 274.632 16.5137C279.791 16.5137 284.1 18.2008 287.56 21.5751C291.02 24.9278 292.75 29.1188 292.75 34.1479C292.75 39.1556 291.02 43.3466 287.56 46.7208ZM268.056 40.789C269.818 42.5728 272.021 43.4648 274.665 43.4648C277.308 43.4648 279.5 42.5728 281.241 40.789C283.004 39.0052 283.885 36.7915 283.885 34.1479C283.885 31.5044 283.004 29.2907 281.241 27.5069C279.5 25.723 277.308 24.8311 274.665 24.8311C272.021 24.8311 269.818 25.723 268.056 27.5069C266.294 29.2907 265.412 31.5044 265.412 34.1479C265.412 36.7915 266.294 39.0052 268.056 40.789Z"
		fill="black" />
	<rect y="22.8274" width="33.4801" height="31.9583" fill="#C9F8FF" />
	<path fill-rule="evenodd" clip-rule="evenodd"
		d="M33.4805 0H22.8277V14.5336L12.551 4.25691L5.01836 11.7895L16.0562 22.8274H0V33.4802H14.5328L5.0168 42.9962L12.5494 50.5288L22.8277 40.2505V54.7856H33.4805V40.2517L43.7577 50.5288L51.2903 42.9962L41.7743 33.4802H54.7856V22.8274H40.2509L51.2887 11.7895L43.7561 4.25688L33.4805 14.5325V0Z"
		fill="#794AFF" />
	<rect y="33.4802" width="10.6528" height="33.4801" transform="rotate(-90 0 33.4802)" fill="#5120DD" />
	<rect x="22.8276" y="22.8274" width="10.6528" height="31.9583" fill="#5120DD" />
	<rect width="10.6528" height="22.4379" transform="matrix(-0.707107 -0.707107 -0.707107 0.707107 28.416 34.6627)"
		fill="#5120DD" />
</svg>