<svg viewBox="0 0 293 55" fill="none" xmlns="http://www.w3.org/2000/svg">
<path d="M91.5432 11.3149H83.129V17.3434H91.5432V25.1773H83.129V51H74.5537V25.1773H69.2666V17.3434H74.5537V3.44879H91.5432V11.3149Z" fill="white"/>
<path d="M123.562 46.7446C120.102 50.1189 115.793 51.806 110.635 51.806C105.498 51.806 101.2 50.1189 97.7397 46.7446C94.2795 43.3704 92.5494 39.1794 92.5494 34.1717C92.5494 29.1426 94.2795 24.9516 97.7397 21.5989C101.2 18.2246 105.498 16.5375 110.635 16.5375C115.793 16.5375 120.102 18.2246 123.562 21.5989C127.023 24.9516 128.753 29.1426 128.753 34.1717C128.753 39.1794 127.023 43.3704 123.562 46.7446ZM104.058 40.8128C105.821 42.5966 108.024 43.4886 110.667 43.4886C113.311 43.4886 115.503 42.5966 117.244 40.8128C119.006 39.029 119.887 36.8153 119.887 34.1717C119.887 31.5282 119.006 29.3145 117.244 27.5307C115.503 25.7468 113.311 24.8549 110.667 24.8549C108.024 24.8549 105.821 25.7468 104.058 27.5307C102.296 29.3145 101.415 31.5282 101.415 34.1717C101.415 36.8153 102.296 39.029 104.058 40.8128Z" fill="white"/>
<path d="M142.783 22.2759C145.384 18.6222 148.661 16.7954 152.616 16.7954V25.6609C149.5 25.6609 147.082 26.4991 145.362 28.1754C143.643 29.8303 142.783 32.087 142.783 34.9455V51H134.208V17.3434H142.783V22.2759Z" fill="white"/>
<path d="M190.341 34.2362C190.341 35.4613 190.255 36.4284 190.083 37.1376H163.326C163.906 39.2869 164.991 41.0062 166.582 42.2958C168.194 43.5638 170.128 44.1978 172.385 44.1978C174.19 44.1978 175.823 43.8217 177.285 43.0695C178.768 42.3172 179.843 41.3501 180.509 40.168H189.664C188.439 43.6498 186.247 46.4652 183.088 48.6144C179.95 50.7421 176.339 51.806 172.256 51.806C167.098 51.806 162.789 50.1189 159.328 46.7446C155.868 43.3704 154.138 39.1794 154.138 34.1717C154.138 29.1426 155.868 24.9516 159.328 21.5989C162.789 18.2246 167.087 16.5375 172.224 16.5375C177.382 16.5375 181.691 18.2246 185.151 21.5989C188.611 24.9516 190.341 29.1641 190.341 34.2362ZM177.801 25.9188C176.21 24.6722 174.351 24.049 172.224 24.049C170.117 24.049 168.269 24.6722 166.679 25.9188C165.11 27.1438 164.035 28.788 163.455 30.8512H181.089C180.509 28.788 179.413 27.1438 177.801 25.9188Z" fill="white"/>
<path d="M214.946 16.5375C218.901 16.5375 222.081 17.7303 224.488 20.1159C226.896 22.48 228.099 25.6394 228.099 29.5939V51H219.492V32.3664C219.492 30.0882 218.815 28.2722 217.461 26.9182C216.128 25.5427 214.366 24.8549 212.173 24.8549C209.788 24.8549 207.864 25.5642 206.403 26.9826C204.963 28.3796 204.243 30.2279 204.243 32.5276V51H195.668V17.3434H204.243V21.5022C206.886 18.1924 210.454 16.5375 214.946 16.5375Z" fill="white"/>
<path d="M254.38 25.1773H246.063V43.1339H254.38V51H237.487V25.1773H231.394V17.3434H237.487V7.41408H246.063V17.3434H254.38V25.1773Z" fill="white"/>
<path d="M287.56 46.7446C284.1 50.1189 279.791 51.806 274.632 51.806C269.496 51.806 265.197 50.1189 261.737 46.7446C258.277 43.3704 256.547 39.1794 256.547 34.1717C256.547 29.1426 258.277 24.9516 261.737 21.5989C265.197 18.2246 269.496 16.5375 274.632 16.5375C279.791 16.5375 284.1 18.2246 287.56 21.5989C291.02 24.9516 292.75 29.1426 292.75 34.1717C292.75 39.1794 291.02 43.3704 287.56 46.7446ZM268.056 40.8128C269.818 42.5966 272.021 43.4886 274.665 43.4886C277.308 43.4886 279.5 42.5966 281.241 40.8128C283.004 39.029 283.885 36.8153 283.885 34.1717C283.885 31.5282 283.004 29.3145 281.241 27.5307C279.5 25.7468 277.308 24.8549 274.665 24.8549C272.021 24.8549 269.818 25.7468 268.056 27.5307C266.294 29.3145 265.412 31.5282 265.412 34.1717C265.412 36.8153 266.294 39.029 268.056 40.8128Z" fill="white"/>
<rect y="22.8512" width="33.4801" height="31.9583" fill="#C9F8FF"/>
<path fill-rule="evenodd" clip-rule="evenodd" d="M33.4805 0.0238037H22.8277V14.5575L12.551 4.28071L5.01836 11.8134L16.0562 22.8512H0V33.504H14.5328L5.0168 43.02L12.5494 50.5526L22.8277 40.2743V54.8094H33.4805V40.2755L43.7577 50.5526L51.2903 43.02L41.7743 33.504H54.7856V22.8512H40.2509L51.2887 11.8133L43.7561 4.28068L33.4805 14.5563V0.0238037Z" fill="#794AFF"/>
<rect y="33.504" width="10.6528" height="33.4801" transform="rotate(-90 0 33.504)" fill="#5120DD"/>
<rect x="22.8276" y="22.8512" width="10.6528" height="31.9583" fill="#5120DD"/>
<rect width="10.6528" height="22.4379" transform="matrix(-0.707107 -0.707107 -0.707107 0.707107 28.416 34.6865)" fill="#5120DD"/>
</svg>
