<?xml version="1.0" encoding="utf-8"?>
<!-- Generator: Adobe Illustrator 25.2.3, SVG Export Plug-In . SVG Version: 6.00 Build 0)  -->
<svg version="1.1" id="Layer_1" xmlns="http://www.w3.org/2000/svg" xmlns:xlink="http://www.w3.org/1999/xlink" x="0px" y="0px"
	 viewBox="0 0 2000 695.9" style="enable-background:new 0 0 2000 695.9;" xml:space="preserve">
<style type="text/css">
	.st0{fill:#FFFFFF;}
	.st1{fill:#D10000;}
</style>
<g>
	<g>
		<g>
			<rect x="784.8" y="79.8" class="st0" width="90.6" height="90.6"/>
			<rect x="784.8" y="217.4" class="st0" width="90.6" height="399.6"/>
			<path class="st0" d="M1149.4,217.2H919.6V617h90.6V307.8h139.1l0,0c20.2,0,36.6,16.4,36.6,36.6l0,0V617h90.6V344.4
				C1276.6,274.1,1219.6,217.2,1149.4,217.2z"/>
			<path class="st0" d="M1872.2,526.4c-20.2,0-36.6-16.4-36.6-36.6l0,0v-182h84.9v-90.6h-84.9V79.8H1745v410
				c0,70.3,57,127.2,127.2,127.2h109.5v-90.6H1872.2z"/>
			<path class="st0" d="M1704.8,469.8V344.4l0,0c0-70.3-57-127.2-127.2-127.2l-132.2,0.2c-70.3,0-127.2,57-127.2,127.2l0,0v145.2
				c0,70.3,57,127.2,127.2,127.2h259.4v-90.6h-259.4c-20.2,0-36.6-16.4-36.6-36.6v-20L1704.8,469.8L1704.8,469.8z M1408.8,344.6
				c0-20.2,16.4-36.6,36.6-36.6l132.2-0.2c20.2,0,36.6,16.4,36.6,36.6v43.4h-205.4L1408.8,344.6L1408.8,344.6z"/>
			<g>
				<path class="st0" d="M1973.2,162.6c-14.4-4.2-31,1.8-39.5,14.1c-9.3,12.7-8.9,31.5,1.1,43.8c9,11.8,25.6,17,39.8,12.3
					c13.8-4.1,24.2-17,25.5-31.3v-7.4C1998.6,179.5,1987.5,166.3,1973.2,162.6z M1980.7,224.6c-12.3,8.3-30.1,6.1-40.1-4.8
					c-10.2-10.2-11.8-27.7-3.5-39.6c4.4-6.6,11.3-11.4,18.9-13.3c14.9-3.9,31.6,4.9,37,19.2C1998.8,199.9,1993.2,216.9,1980.7,224.6
					z"/>
				<path class="st0" d="M1976.7,196.7c4-5.6,1.9-15.4-5.3-17.2c-7.4-1.3-15.1-0.5-22.6-0.7c0,12.8,0,25.6,0,38.3c1.8,0,3.5,0,5.3,0
					c0-5.4,0-10.8,0-16.2c3.2,0,6.3,0,9.5,0c3.5,5.4,6.9,10.8,10.4,16.2c2.1,0,4.2,0,6.4-0.1c-3.6-5.4-7-10.9-10.6-16.4
					C1972.4,200,1975.1,199,1976.7,196.7z M1954.2,196.4c0-4.4,0-8.8,0-13.2c4.7,0.2,9.5-0.4,14.3,0.3c4.6,0.8,6.4,6.9,3.8,10.4
					c-1.4,2-4.1,2.5-6.3,2.5C1962,196.5,1958.1,196.4,1954.2,196.4z"/>
			</g>
		</g>
	</g>
	<g id="ICON">
		<circle class="st1" cx="316.2" cy="187.8" r="18.3"/>
		<path class="st1" d="M133.5,222.1l222-222C353,0,350.5,0,347.9,0C223.6,0,114.5,65.2,53,163.3l58.8,58.8
			C117.8,228.1,127.5,228.1,133.5,222.1z M109.5,191.2c-7.2-7.2-7.2-18.9,0-26.1c7.2-7.2,18.9-7.2,26.1,0c7.2,7.2,7.2,18.9,0,26.1
			C128.4,198.3,116.7,198.3,109.5,191.2z M144.9,155.8c-7.2-7.2-7.2-18.9,0-26.1c7.2-7.2,18.9-7.2,26.1,0c7.2,7.2,7.2,18.9,0,26.1
			S152.1,163,144.9,155.8z M179.4,121.3c-7.2-7.2-7.2-18.9,0-26.1s18.9-7.2,26.1,0c7.2,7.2,7.2,18.9,0,26.1
			C198.3,128.5,186.6,128.5,179.4,121.3z"/>
		<circle class="st1" cx="122.6" cy="381.3" r="18.3"/>
		<circle class="st1" cx="575" cy="316.1" r="18.3"/>
		<path class="st1" d="M563.5,475.8l-220,220c1.5,0,3,0.1,4.4,0.1c124.1,0,232.9-64.9,294.5-162.7L585,475.8
			C579.1,469.9,569.4,469.9,563.5,475.8z M586.8,506.4c7.2,7.2,7.2,18.9,0,26.1s-18.9,7.2-26.1,0c-7.2-7.2-7.2-18.9,0-26.1
			S579.6,499.2,586.8,506.4z M551.4,541.7c7.2,7.2,7.2,18.9,0,26.1c-7.2,7.2-18.9,7.2-26.1,0s-7.2-18.9,0-26.1
			C532.5,534.5,544.2,534.5,551.4,541.7z M516.9,576.2c7.2,7.2,7.2,18.9,0,26.1c-7.2,7.2-18.9,7.2-26.1,0s-7.2-18.9,0-26.1
			C498,569,509.7,569,516.9,576.2z"/>
		<path class="st1" d="M453,412.5c0-4.1-1.6-7.9-4.5-10.8l-88.2-88.2c-8-8-12.4-18.7-12.4-30c0-11.4,4.4-22,12.5-30L549.5,64.3
			C503.8,31.7,449.8,10,391.3,2.7L152.7,241.3c-16.6,16.6-43.5,16.6-60.1,0L39,187.7c-24.9,48-39,102.4-39,160.2
			c0,40.9,7.1,80.2,20.1,116.7l62.3-62.2c-9-17.1-6.3-38.9,8.1-53.2c17.7-17.7,46.5-17.7,64.3,0s17.7,46.5,0,64.3
			c-14.4,14.4-36,17.1-53.1,8.2L31.1,492c15.6,34.3,36.7,65.6,62,92.8L283,395.2c2.9-2.9,4.5-6.7,4.5-10.8c0-4.1-1.6-7.9-4.5-10.8
			l-56-56c-8-8-12.4-18.7-12.4-30.1s4.4-22,12.5-30l48.9-48.7c-8.9-17.1-6.2-38.8,8.1-53.2c17.7-17.7,46.5-17.7,64.3,0
			s17.7,46.5,0,64.3c-14.4,14.4-36.1,17.1-53.2,8.1l-48.9,48.7c-2.9,2.9-4.5,6.7-4.5,10.8c0,4.1,1.6,7.9,4.5,10.8l56,56
			c8,8,12.4,18.7,12.4,30c0,11.4-4.4,22-12.5,30L112.4,604c27.4,25.3,59,46.2,93.5,61.6l242.6-242.3
			C451.4,420.5,453,416.6,453,412.5z"/>
		<path class="st1" d="M604.3,456.6l52.2,52.2c25.1-48.1,39.4-102.8,39.4-160.9c0-40.1-6.8-78.6-19.3-114.4L615.2,295
			c9,17.1,6.2,38.8-8.1,53.2c-17.7,17.7-46.5,17.7-64.3,0s-17.7-46.5,0-64.3c14.4-14.4,36-17.1,53.2-8.1l69.7-69.8
			c-21.7-48.5-54.2-91.2-94.5-124.9L379.5,272.6c-2.9,2.9-4.5,6.7-4.5,10.8c0,4.1,1.6,7.9,4.5,10.8l88.2,88.2c8,8,12.4,18.7,12.4,30
			c0,11.4-4.4,22-12.5,30l-234.3,234c23.6,8.2,48.4,14,74,17l236.9-236.9C560.8,440.1,587.8,440.1,604.3,456.6z"/>
		<circle class="st0" cx="573.7" cy="519.4" r="18.5"/>
		<circle class="st0" cx="538.4" cy="554.8" r="18.5"/>
		
			<ellipse transform="matrix(0.4641 -0.8858 0.8858 0.4641 -251.9328 762.1595)" class="st0" cx="503.9" cy="589.3" rx="18.5" ry="18.5"/>
		<path class="st0" d="M480.1,412.6c0-11.4-4.4-22-12.4-30l-88.2-88.2c-2.9-2.9-4.5-6.7-4.5-10.8c0-4.1,1.6-7.9,4.5-10.8L571.2,81.1
			c-7-5.9-14.2-11.5-21.7-16.8L360.3,253.4c-8,8-12.5,18.7-12.5,30c0,11.4,4.4,22,12.4,30l88.2,88.2c2.9,2.9,4.5,6.7,4.5,10.8
			c0,4.1-1.6,7.9-4.5,10.8L205.9,665.6c9,4,18.2,7.7,27.5,10.9l234.3-234C475.7,434.6,480.1,423.9,480.1,412.6z"/>
		<path class="st0" d="M615.2,295l61.4-61.5c-3.3-9.4-6.9-18.5-10.9-27.5L596,275.8c-17.1-8.9-38.8-6.2-53.2,8.1
			c-17.7,17.7-17.7,46.5,0,64.3s46.5,17.7,64.3,0C621.5,333.8,624.2,312.2,615.2,295z M562,329c-7.1-7.1-7.1-18.7,0-25.8
			c7.1-7.1,18.7-7.1,25.8,0s7.1,18.7,0,25.8C580.8,336.1,569.2,336.1,562,329z"/>
		<path class="st0" d="M314.7,384.4c0-11.4-4.4-22-12.4-30l-56-56c-2.9-2.9-4.5-6.7-4.5-10.8c0-4.1,1.6-7.9,4.5-10.8l48.9-48.7
			c17.1,9,38.8,6.2,53.2-8.1c17.7-17.7,17.7-46.5,0-64.3s-46.5-17.7-64.3,0c-14.4,14.4-17.1,36-8.1,53.2l-48.9,48.7
			c-8,8-12.5,18.7-12.5,30c0,11.4,4.4,22,12.4,30.1l56,56c2.9,2.9,4.5,6.7,4.5,10.8c0,4.1-1.6,7.9-4.5,10.8L93.1,584.8
			c6.2,6.6,12.6,13,19.3,19.2l189.8-189.6C310.2,406.4,314.7,395.7,314.7,384.4z M303.3,174.8c7.1-7.1,18.7-7.1,25.8,0
			s7.1,18.7,0,25.8s-18.7,7.1-25.8,0S296.2,182,303.3,174.8z"/>
		<path class="st0" d="M154.7,349.2c-17.7-17.7-46.5-17.7-64.3,0c-14.4,14.4-17.1,36.1-8.1,53.2L20,464.6c3.3,9.3,7,18.4,11.1,27.4
			l70.5-70.4c17.1,8.9,38.8,6.2,53.1-8.2C172.4,395.7,172.4,366.9,154.7,349.2z M109.7,394.2c-7.1-7.1-7.1-18.7,0-25.8
			s18.7-7.1,25.8,0s7.1,18.7,0,25.8S116.8,401.3,109.7,394.2z"/>
		<path class="st0" d="M604.3,456.6c-16.6-16.6-43.5-16.6-60.1,0L307.4,693.5c11.9,1.4,23.9,2.2,36.1,2.3l220-220c6-6,15.7-6,21.6,0
			l57.4,57.4c5-7.9,9.7-16.1,14-24.4L604.3,456.6z"/>
		<circle class="st0" cx="122.6" cy="178.1" r="18.5"/>
		<circle class="st0" cx="157.9" cy="142.7" r="18.5"/>
		<circle class="st0" cx="192.5" cy="108.2" r="18.5"/>
		<path class="st0" d="M152.7,241.3L391.3,2.7c-11.8-1.5-23.7-2.3-35.8-2.6l-222,222c-6,6-15.7,6-21.6,0L53,163.3
			c-5,7.9-9.6,16.1-14,24.4l53.6,53.6C109.2,257.9,136.1,257.9,152.7,241.3z"/>
	</g>
</g>
</svg>
