<svg version="1.1" xmlns="http://www.w3.org/2000/svg" viewBox="0 0 843 293.3"><g fill="#000000"><rect x="330.8" y="33.6" width="38.2" height="38.2" /><rect x="330.8" y="91.6" width="38.2" height="168.4" /><path d="M484.4,91.5h-96.8v168.5h38.2V129.7h58.6v0c8.5,0,15.4,6.9,15.4,15.4l0,0v114.9h38.2V145.2 C538.1,115.5,514,91.5,484.4,91.5z M718.6,198v-52.9h0c0-29.6-24-53.6-53.6-53.6l-55.7,0.1c-29.6,0-53.6,24-53.6,53.6h0l0,61.2c0,29.6,24,53.6,53.6,53.6 h109.4v-38.2H609.2c-8.5,0-15.4-6.9-15.4-15.4V198H718.6z M593.8,145.3c0-8.5,6.9-15.4,15.4-15.4l55.7-0.1 c8.5,0,15.4,6.9,15.4,15.4v18.3h-86.6V145.3z M789.1,221.9c-8.5,0-15.4-6.9-15.4-15.4h0v-76.7h35.8V91.5h-35.8V33.6h-38.2v172.8c0,29.6,24,53.6,53.6,53.6h46.2v-38.2 H789.1z M831.7,68.5c-6.1-1.8-13.1,0.7-16.7,6c-3.9,5.4-3.7,13.3,0.4,18.5c3.8,5,10.8,7.2,16.8,5.2C838,96.4,842.4,91,843,85 v-3.1C842.4,75.7,837.7,70.1,831.7,68.5z M834.8,94.7c-5.2,3.5-12.7,2.6-16.9-2c-4.3-4.3-5-11.7-1.5-16.7 c1.8-2.8,4.8-4.8,8-5.6c6.3-1.7,13.3,2,15.6,8.1C842.5,84.2,840.1,91.4,834.8,94.7z M833.2,82.9c1.7-2.4,0.8-6.5-2.2-7.3c-3.1-0.6-6.3-0.2-9.5-0.3c0,5.4,0,10.8,0,16.2c0.7,0,1.5,0,2.2,0 c0-2.3,0-4.5,0-6.8c1.3,0,2.7,0,4,0c1.5,2.3,2.9,4.6,4.4,6.8c0.9,0,1.8,0,2.7,0c-1.5-2.3-3-4.6-4.5-6.9 C831.3,84.3,832.5,83.9,833.2,82.9z M823.7,82.8c0-1.9,0-3.7,0-5.6c2,0.1,4-0.2,6,0.1c1.9,0.3,2.7,2.9,1.6,4.4 c-0.6,0.8-1.7,1-2.7,1C826.9,82.8,825.3,82.8,823.7,82.8z" /></g><g fill="#d10000"><circle cx="133.3" cy="79.1" r="7.7" /><circle cx="51.7" cy="160.7" r="7.7" /><circle cx="242.3" cy="133.2" r="7.7" /><path d="M56.3,93.6L149.8,0c-1.1,0-2.1,0-3.2,0C94.2,0,48.3,27.5,22.3,68.8l24.8,24.8C49.7,96.1,53.7,96.1,56.3,93.6 z M46.2,80.6c-3-3-3-8,0-11s8-3,11,0c3,3,3,8,0,11C54.1,83.6,49.2,83.6,46.2,80.6z M61.1,65.7c-3-3-3-8,0-11c3-3,8-3,11,0 s3,8,0,11C69,68.7,64.1,68.7,61.1,65.7z M75.6,51.1c-3-3-3-8,0-11c3-3,8-3,11,0c3,3,3,8,0,11S78.7,54.1,75.6,51.1z M237.5,200.6l-92.7,92.7c0.6,0,1.2,0,1.9,0c52.3,0,98.2-27.4,124.1-68.6l-24.2-24.2 C244.1,198,240,198,237.5,200.6z M247.3,213.4c3,3,3,8,0,11s-8,3-11,0c-3-3-3-8,0-11C239.4,210.4,244.3,210.4,247.3,213.4z M232.4,228.3c3,3,3,8,0,11c-3,3-8,3-11,0c-3-3-3-8,0-11S229.4,225.3,232.4,228.3z M217.9,242.9c3,3,3,8,0,11c-3,3-8,3-11,0 s-3-8,0-11S214.8,239.8,217.9,242.9z M190.9,173.9c0-1.7-0.7-3.3-1.9-4.6l-37.2-37.2c-3.4-3.4-5.2-7.9-5.2-12.7c0-4.8,1.9-9.3,5.3-12.7l79.8-79.7 c-19.3-13.7-42-22.9-66.7-26L64.4,101.7c-7,7-18.3,7-25.3,0L16.4,79.1C5.9,99.3,0,122.3,0,146.7c0,17.3,3,33.8,8.5,49.2 l26.2-26.2c-3.8-7.2-2.6-16.4,3.4-22.4c7.5-7.5,19.6-7.5,27.1,0c7.5,7.5,7.5,19.6,0,27.1c-6.1,6.1-15.2,7.2-22.4,3.4l-29.7,29.7 c6.6,14.5,15.4,27.6,26.1,39.1l80-79.9c1.2-1.2,1.9-2.8,1.9-4.6c0-1.7-0.7-3.3-1.9-4.6l-23.6-23.6c-3.4-3.4-5.2-7.9-5.2-12.7 c0-4.8,1.9-9.3,5.3-12.7L116.3,88c-3.8-7.2-2.6-16.4,3.4-22.4c7.5-7.5,19.6-7.5,27.1,0c7.5,7.5,7.5,19.6,0,27.1 c-6.1,6.1-15.2,7.2-22.4,3.4l-20.6,20.5c-1.2,1.2-1.9,2.8-1.9,4.6c0,1.7,0.7,3.3,1.9,4.6l23.6,23.6c3.4,3.4,5.2,7.9,5.2,12.7 c0,4.8-1.9,9.3-5.3,12.7l-80,79.9c11.6,10.6,24.9,19.5,39.4,26L189,178.4C190.2,177.2,190.9,175.6,190.9,173.9z M254.7,192.5l22,22c10.6-20.3,16.6-43.3,16.6-67.8c0-16.9-2.9-33.1-8.1-48.2l-25.9,25.9 c3.8,7.2,2.6,16.4-3.4,22.4c-7.5,7.5-19.6,7.5-27.1,0c-7.5-7.5-7.5-19.6,0-27.1c6.1-6.1,15.2-7.2,22.4-3.4l29.4-29.4 c-9.2-20.5-22.9-38.4-39.8-52.6L160,114.9c-1.2,1.2-1.9,2.8-1.9,4.6c0,1.7,0.7,3.3,1.9,4.6l37.2,37.2c3.4,3.4,5.2,7.9,5.2,12.7 c0,4.8-1.9,9.3-5.3,12.7l-98.8,98.6c10,3.5,20.4,5.9,31.2,7.2l99.8-99.8C236.4,185.5,247.7,185.5,254.7,192.5z" /></g><g fill="#ffffff"><circle cx="241.8" cy="218.9" r="7.8" /><circle cx="226.9" cy="233.8" r="7.8" /><circle cx="212.4" cy="248.4" r="7.8" /><circle cx="51.7" cy="75.1" r="7.8" /><circle cx="66.6" cy="60.2" r="7.8" /><circle cx="81.1" cy="45.6" r="7.8" /><path d="M202.4,173.9c0-4.8-1.9-9.3-5.2-12.7L159.9,124c-1.2-1.2-1.9-2.8-1.9-4.6c0-1.7,0.7-3.3,1.9-4.6l80.8-80.7 c-2.9-2.5-6-4.8-9.1-7.1l-79.8,79.7c-3.4,3.4-5.3,7.9-5.3,12.7c0,4.8,1.9,9.3,5.2,12.7l37.2,37.2c1.2,1.2,1.9,2.8,1.9,4.6 c0,1.7-0.7,3.3-1.9,4.6L86.8,280.5c3.8,1.7,7.7,3.2,11.6,4.6l98.8-98.6C200.5,183.2,202.4,178.7,202.4,173.9z M259.3,124.3l25.9-25.9c-1.4-3.9-2.9-7.8-4.6-11.6l-29.4,29.4c-7.2-3.8-16.4-2.6-22.4,3.4 c-7.5,7.5-7.5,19.6,0,27.1c7.5,7.5,19.6,7.5,27.1,0C261.9,140.7,263.1,131.6,259.3,124.3z M236.9,138.7c-3-3-3-7.9,0-10.9 c3-3,7.9-3,10.9,0c3,3,3,7.9,0,10.9C244.8,141.7,239.9,141.7,236.9,138.7z M132.6,162c0-4.8-1.9-9.3-5.2-12.7l-23.6-23.6c-1.2-1.2-1.9-2.8-1.9-4.6c0-1.7,0.7-3.3,1.9-4.6l20.6-20.5 c7.2,3.8,16.4,2.6,22.4-3.4c7.5-7.5,7.5-19.6,0-27.1c-7.5-7.5-19.6-7.5-27.1,0c-6.1,6.1-7.2,15.2-3.4,22.4l-20.6,20.5 c-3.4,3.4-5.3,7.9-5.3,12.7c0,4.8,1.9,9.3,5.2,12.7l23.6,23.6c1.2,1.2,1.9,2.8,1.9,4.6c0,1.7-0.7,3.3-1.9,4.6l-80,79.9 c2.6,2.8,5.3,5.5,8.1,8.1l80-79.9C130.8,171.3,132.6,166.8,132.6,162z M127.8,73.7c3-3,7.9-3,10.9,0c3,3,3,7.9,0,10.9 c-3,3-7.9,3-10.9,0C124.8,81.6,124.8,76.7,127.8,73.7z M65.2,147.2c-7.5-7.5-19.6-7.5-27.1,0c-6.1,6.1-7.2,15.2-3.4,22.4L8.5,195.8c1.4,3.9,2.9,7.8,4.7,11.5 l29.7-29.7c7.2,3.8,16.3,2.6,22.4-3.4C72.7,166.8,72.7,154.6,65.2,147.2z M46.2,166.2c-3-3-3-7.9,0-10.9c3-3,7.9-3,10.9,0 c3,3,3,7.9,0,10.9S49.2,169.2,46.2,166.2z M254.7,192.5c-7-7-18.3-7-25.3,0l-99.8,99.8c5,0.6,10.1,0.9,15.2,1l92.7-92.7c2.5-2.5,6.6-2.5,9.1,0 l24.2,24.2c2.1-3.3,4.1-6.8,5.9-10.3L254.7,192.5z M64.4,101.7L164.9,1.1c-5-0.6-10-1-15.1-1.1L56.3,93.6c-2.5,2.5-6.6,2.5-9.1,0L22.3,68.8 c-2.1,3.3-4.1,6.8-5.9,10.3L39,101.7C46,108.7,57.4,108.7,64.4,101.7z" /></g></svg>
