<svg xmlns="http://www.w3.org/2000/svg" width="1920" height="1081.854" viewBox="0 0 1920 1081.854">
  <g id="Group_1" data-name="Group 1" transform="translate(0 1)">
    <line id="Line_1" data-name="Line 1" y1="212" x2="211" transform="translate(413.5 0.5)" fill="none" stroke="#fff" stroke-width="1" opacity="0.14"/>
    <line id="Line_2" data-name="Line 2" y1="560" x2="560" transform="translate(0.5 183.5)" fill="none" stroke="#fff" stroke-width="1" opacity="0.14"/>
    <line id="Line_3" data-name="Line 3" y1="509" x2="509" transform="translate(1080.5 0.5)" fill="none" stroke="#fff" stroke-width="1" opacity="0.14"/>
    <line id="Line_4" data-name="Line 4" y1="431" x2="432" transform="translate(1143.5 649.5)" fill="none" stroke="#fff" stroke-width="1" opacity="0.14"/>
    <g id="Rectangle_11" data-name="Rectangle 11" transform="translate(1077 505.929) rotate(45)" fill="none" stroke="#fff" stroke-width="1">
      <rect width="10" height="10" stroke="none"/>
      <rect x="0.5" y="0.5" width="9" height="9" fill="none"/>
    </g>
    <g id="Rectangle_13" data-name="Rectangle 13" transform="translate(564 172.929) rotate(45)" fill="none" stroke="#fff" stroke-width="1">
      <rect width="10" height="10" stroke="none"/>
      <rect x="0.5" y="0.5" width="9" height="9" fill="none"/>
    </g>
    <g id="Rectangle_14" data-name="Rectangle 14" transform="translate(410 208.929) rotate(45)" fill="none" stroke="#fff" stroke-width="1">
      <rect width="10" height="10" stroke="none"/>
      <rect x="0.5" y="0.5" width="9" height="9" fill="none"/>
    </g>
    <g id="Rectangle_12" data-name="Rectangle 12" transform="translate(1579 638.929) rotate(45)" fill="none" stroke="#fff" stroke-width="1">
      <rect width="10" height="10" stroke="none"/>
      <rect x="0.5" y="0.5" width="9" height="9" fill="none"/>
    </g>
    <rect id="Rectangle_15" data-name="Rectangle 15" width="1920" height="1081" transform="translate(0 -1)" fill="none"/>
  </g>
</svg>
