<svg viewBox="0 0 167 38" fill="none" xmlns="http://www.w3.org/2000/svg">
<path fill-rule="evenodd" clip-rule="evenodd" d="M57.21 28.8524C58.9726 29.8024 60.9489 30.2774 63.1391 30.2774C64.8495 30.2774 66.4191 29.9914 67.8479 29.4193C69.2768 28.8473 70.4918 28.0097 71.493 26.9064L69.4593 24.9758C67.7906 26.6919 65.736 27.55 63.2955 27.55C61.6686 27.55 60.198 27.1924 58.8839 26.4774C57.5698 25.7623 56.5426 24.7766 55.8021 23.5201C55.0616 22.2637 54.6914 20.8591 54.6914 19.3064C54.6914 17.7537 55.0616 16.3492 55.8021 15.0927C56.5426 13.8362 57.5698 12.8505 58.8839 12.1354C60.198 11.4204 61.6686 11.0629 63.2955 11.0629C65.7569 11.0629 67.8114 11.9107 69.4593 13.6064L71.493 11.6758C70.4918 10.5725 69.282 9.74002 67.8636 9.17819C66.4452 8.61636 64.8808 8.33545 63.1704 8.33545C60.9802 8.33545 58.9987 8.81044 57.2257 9.76045C55.4527 10.7105 54.0656 12.018 53.0644 13.683C52.0632 15.3481 51.5626 17.2225 51.5626 19.3064C51.5626 21.3903 52.0632 23.2647 53.0644 24.9298C54.0656 26.5949 55.4475 27.9024 57.21 28.8524ZM76.9934 29.1435C78.3075 29.8586 79.7885 30.2161 81.4363 30.2161C83.0841 30.2161 84.5599 29.8586 85.8636 29.1435C87.1672 28.4285 88.1893 27.4427 88.9298 26.1863C89.6703 24.9298 90.0405 23.5048 90.0405 21.9113C90.0405 20.3177 89.6703 18.8927 88.9298 17.6363C88.1893 16.3798 87.1672 15.3992 85.8636 14.6943C84.5599 13.9895 83.0841 13.6371 81.4363 13.6371C79.7885 13.6371 78.3075 13.9895 76.9934 14.6943C75.6793 15.3992 74.652 16.3798 73.9116 17.6363C73.1711 18.8927 72.8008 20.3177 72.8008 21.9113C72.8008 23.5048 73.1711 24.9298 73.9116 26.1863C74.652 27.4427 75.6793 28.4285 76.9934 29.1435ZM81.4363 27.6419C82.5001 27.6419 83.4544 27.4019 84.2992 26.9217C85.1439 26.4416 85.8062 25.7674 86.2859 24.8992C86.7657 24.0309 87.0056 23.0349 87.0056 21.9113C87.0056 20.7876 86.7657 19.7916 86.2859 18.9234C85.8062 18.0551 85.1439 17.386 84.2992 16.9161C83.4544 16.4462 82.5001 16.2113 81.4363 16.2113C80.3725 16.2113 79.4182 16.4462 78.5735 16.9161C77.7287 17.386 77.0612 18.0551 76.571 18.9234C76.0809 19.7916 75.8358 20.7876 75.8358 21.9113C75.8358 23.0349 76.0809 24.0309 76.571 24.8992C77.0612 25.7674 77.7287 26.4416 78.5735 26.9217C79.4182 27.4019 80.3725 27.6419 81.4363 27.6419ZM94.5397 29.6798C95.7912 30.0373 97.0949 30.2161 98.4507 30.2161C100.662 30.2161 102.409 29.782 103.691 28.9137C104.974 28.0454 105.616 26.8758 105.616 25.4048C105.616 24.3016 105.324 23.4435 104.74 22.8306C104.156 22.2177 103.452 21.7836 102.628 21.5282C101.804 21.2728 100.724 21.0328 99.3894 20.808C98.3881 20.6242 97.6112 20.4607 97.0584 20.3177C96.5056 20.1747 96.0415 19.95 95.6661 19.6435C95.2906 19.3371 95.1029 18.9182 95.1029 18.3871C95.1029 17.7129 95.4366 17.1715 96.1041 16.7629C96.7716 16.3543 97.7415 16.15 99.0139 16.15C100.849 16.15 102.445 16.579 103.801 17.4371L105.084 15.108C104.375 14.6586 103.467 14.301 102.362 14.0354C101.256 13.7699 100.151 13.6371 99.0452 13.6371C96.9384 13.6371 95.2593 14.0814 94.0078 14.9701C92.7563 15.8588 92.1305 17.0387 92.1305 18.5096C92.1305 19.6537 92.433 20.5424 93.0379 21.1758C93.6428 21.8091 94.3676 22.2586 95.2124 22.5242C96.0572 22.7898 97.147 23.0247 98.482 23.229C99.4624 23.3924 100.218 23.5406 100.75 23.6734C101.282 23.8061 101.726 24.0156 102.08 24.3016C102.435 24.5876 102.612 24.9758 102.612 25.4661C102.612 26.9371 101.298 27.6725 98.6697 27.6725C97.6059 27.6725 96.5526 27.5193 95.5096 27.2129C94.4667 26.9064 93.5802 26.4978 92.8502 25.9871L91.5986 28.3161C92.3078 28.8677 93.2882 29.3223 94.5397 29.6798ZM124.32 13.7903V30.0322H121.472V27.5806C120.867 28.4183 120.07 29.0669 119.079 29.5266C118.088 29.9863 117.009 30.2161 115.841 30.2161C113.63 30.2161 111.888 29.6185 110.615 28.4234C109.343 27.2282 108.707 25.4661 108.707 23.1371V13.7903H111.711V22.8C111.711 24.3731 112.096 25.5631 112.868 26.3701C113.64 27.1771 114.745 27.5806 116.185 27.5806C117.77 27.5806 119.021 27.1107 119.939 26.1709C120.857 25.2311 121.316 23.9032 121.316 22.1871V13.7903H124.32ZM143.415 15.4298C142.174 14.2346 140.5 13.6371 138.393 13.6371C137.079 13.6371 135.906 13.8618 134.873 14.3113C133.841 14.7607 133.022 15.4043 132.417 16.2419V13.7903H129.538V30.0322H132.542V21.6661C132.542 19.9295 133.011 18.5965 133.95 17.6669C134.889 16.7373 136.171 16.2725 137.798 16.2725C139.238 16.2725 140.343 16.6709 141.115 17.4677C141.887 18.2645 142.273 19.4494 142.273 21.0225V30.0322H145.276V20.6854C145.276 18.3768 144.656 16.625 143.415 15.4298ZM157.535 30.2161C155.887 30.2161 154.406 29.8586 153.092 29.1435C151.778 28.4285 150.751 27.4427 150.01 26.1863C149.27 24.9298 148.899 23.5048 148.899 21.9113C148.899 20.3177 149.27 18.8927 150.01 17.6363C150.751 16.3798 151.778 15.3992 153.092 14.6943C154.406 13.9895 155.887 13.6371 157.535 13.6371C159.183 13.6371 160.658 13.9895 161.962 14.6943C163.266 15.3992 164.288 16.3798 165.028 17.6363C165.769 18.8927 166.139 20.3177 166.139 21.9113C166.139 23.5048 165.769 24.9298 165.028 26.1863C164.288 27.4427 163.266 28.4285 161.962 29.1435C160.658 29.8586 159.183 30.2161 157.535 30.2161ZM160.398 26.9217C159.553 27.4019 158.599 27.6419 157.535 27.6419C156.471 27.6419 155.517 27.4019 154.672 26.9217C153.827 26.4416 153.16 25.7674 152.67 24.8992C152.179 24.0309 151.934 23.0349 151.934 21.9113C151.934 20.7876 152.179 19.7916 152.67 18.9234C153.16 18.0551 153.827 17.386 154.672 16.9161C155.517 16.4462 156.471 16.2113 157.535 16.2113C158.599 16.2113 159.553 16.4462 160.398 16.9161C161.243 17.386 161.905 18.0551 162.385 18.9234C162.864 19.7916 163.104 20.7876 163.104 21.9113C163.104 23.0349 162.864 24.0309 162.385 24.8992C161.905 25.7674 161.243 26.4416 160.398 26.9217Z" fill="#2451B2"/>
<path fill-rule="evenodd" clip-rule="evenodd" d="M19.1217 2.96875H31.5803C32.8924 2.96875 33.6979 2.97106 34.3012 3.02037C34.5825 3.04337 34.7541 3.07235 34.8595 3.09719C34.9537 3.11938 34.9871 3.13697 34.9871 3.13697C35.2774 3.28498 35.5135 3.52118 35.6615 3.81165C35.6615 3.81165 35.6791 3.84521 35.7013 3.93936C35.7261 4.04484 35.7551 4.21646 35.7781 4.49795C35.8274 5.10149 35.8297 5.90739 35.8297 7.22V19.0905C35.8297 20.4032 35.8274 21.2091 35.7781 21.8126C35.7551 22.0941 35.7261 22.2657 35.7013 22.3712C35.6791 22.4654 35.6615 22.4988 35.6615 22.4988C35.5136 22.7893 35.2775 23.0255 34.9871 23.1735C34.9871 23.1735 34.9536 23.1912 34.8595 23.2134C34.7541 23.2382 34.5825 23.2672 34.3012 23.2902C33.6979 23.3395 32.8924 23.3418 31.5803 23.3418H27.8675C28.1303 23.7813 28.2813 24.2954 28.2813 24.8447C28.2813 25.3787 28.1386 25.8793 27.8893 26.3105H31.5803C34.1064 26.3105 35.3695 26.3105 36.3343 25.8187C37.183 25.3861 37.873 24.6958 38.3055 23.8467C38.7971 22.8814 38.7971 21.6178 38.7971 19.0905V7.22C38.7971 4.69276 38.7971 3.42914 38.3055 2.46387C37.873 1.61479 37.183 0.924462 36.3343 0.491833C35.3695 0 34.1064 0 31.5803 0H19.1217C16.5956 0 15.3326 0 14.3677 0.491833C13.519 0.924462 12.829 1.61479 12.3966 2.46387C11.905 3.42914 11.905 4.69276 11.905 7.22V19.0905C11.905 21.6178 11.905 22.8814 12.3966 23.8467C12.829 24.6958 13.519 25.3861 14.3677 25.8187C15.3326 26.3105 16.5956 26.3105 19.1217 26.3105H22.8127C22.5634 25.8793 22.4207 25.3787 22.4207 24.8447C22.4207 24.2954 22.5717 23.7813 22.8346 23.3418H19.1217C17.8097 23.3418 17.0041 23.3395 16.4009 23.2902C16.1195 23.2672 15.948 23.2382 15.8425 23.2134C15.7484 23.1912 15.715 23.1736 15.715 23.1736C15.4246 23.0256 15.1885 22.7894 15.0406 22.4989C15.0406 22.4989 15.0229 22.4654 15.0008 22.3712C14.9759 22.2657 14.947 22.0941 14.924 21.8126C14.8747 21.2091 14.8724 20.4032 14.8724 19.0905V7.22C14.8724 5.90739 14.8747 5.10149 14.924 4.49795C14.947 4.21646 14.9759 4.04484 15.0008 3.93936C15.0229 3.84516 15.0405 3.81172 15.0405 3.81172C15.1885 3.52125 15.4245 3.28501 15.7149 3.13701C15.7149 3.13701 15.7484 3.11938 15.8425 3.09719C15.948 3.07235 16.1195 3.04337 16.4009 3.02037C17.0041 2.97106 17.8097 2.96875 19.1217 2.96875Z" fill="#2451B2"/>
<path fill-rule="evenodd" clip-rule="evenodd" d="M15.9625 14.6582C16.2253 14.2187 16.3764 13.7046 16.3764 13.1553C16.3764 12.6213 16.2337 12.1207 15.9843 11.6895H19.6754C22.2015 11.6895 23.4645 11.6895 24.4293 12.1813C25.278 12.6139 25.9681 13.3042 26.4005 14.1533C26.8921 15.1186 26.8921 16.3822 26.8921 18.9095V30.78C26.8921 33.3072 26.8921 34.5709 26.4005 35.5361C25.9681 36.3852 25.278 37.0755 24.4293 37.5082C23.4645 38 22.2015 38 19.6754 38H7.21672C4.69063 38 3.42759 38 2.46275 37.5082C1.61405 37.0755 0.924042 36.3852 0.49161 35.5361C0 34.5709 0 33.3072 0 30.78V18.9095C0 16.3822 0 15.1186 0.49161 14.1533C0.924042 13.3042 1.61405 12.6139 2.46275 12.1813C3.42759 11.6895 4.69063 11.6895 7.21673 11.6895H10.9078C10.6584 12.1207 10.5157 12.6213 10.5157 13.1553C10.5157 13.7046 10.6668 14.2187 10.9296 14.6582H7.21673C5.90472 14.6582 5.09917 14.6605 4.49591 14.7098C4.21454 14.7328 4.043 14.7618 3.93758 14.7866C3.84342 14.8088 3.8118 14.8255 3.81 14.8264L3.80992 14.8265C3.51958 14.9745 3.28352 15.2106 3.13559 15.5011L3.13555 15.5012C3.1346 15.503 3.11796 15.5346 3.09579 15.6288C3.07096 15.7343 3.04199 15.9059 3.019 16.1874C2.96971 16.7909 2.9674 17.5968 2.9674 18.9095V30.78C2.9674 32.0926 2.96971 32.8985 3.019 33.5021C3.04199 33.7835 3.07096 33.9552 3.09579 34.0606C3.11797 34.1549 3.1346 34.1865 3.13555 34.1883L3.13559 34.1883C3.28352 34.4788 3.51958 34.715 3.80992 34.863L3.81 34.863C3.81184 34.864 3.84347 34.8806 3.93758 34.9028C4.043 34.9276 4.21454 34.9566 4.49591 34.9796C5.09917 35.0289 5.90471 35.0312 7.21672 35.0312H19.6754C20.9874 35.0312 21.7929 35.0289 22.3962 34.9796C22.6776 34.9566 22.8491 34.9276 22.9545 34.9028C23.0486 34.8806 23.0803 34.864 23.0821 34.863L23.0822 34.863C23.3725 34.715 23.6086 34.4788 23.7565 34.1883L23.7565 34.1883C23.7575 34.1864 23.7741 34.1548 23.7963 34.0606C23.8211 33.9552 23.8501 33.7835 23.8731 33.5021C23.9224 32.8985 23.9247 32.0926 23.9247 30.78V18.9095C23.9247 17.5968 23.9224 16.7909 23.8731 16.1874C23.8501 15.9059 23.8211 15.7343 23.7963 15.6288C23.7741 15.5347 23.7575 15.503 23.7565 15.5012L23.7565 15.5011C23.6086 15.2106 23.3725 14.9745 23.0822 14.8265L23.0821 14.8264C23.0803 14.8255 23.0487 14.8088 22.9545 14.7866C22.8491 14.7618 22.6776 14.7328 22.3962 14.7098C21.7929 14.6605 20.9874 14.6582 19.6754 14.6582H15.9625Z" fill="#2451B2"/>
</svg>
