<svg xmlns="http://www.w3.org/2000/svg" viewBox="0 0 545.56 158.93"><g fill="#2C32D2"><path d="M37.55,150.21c.07,1.56.12,3.2.14,4.9,2.4,2.42,6.7,3.57,14.32,3.57,11.64,0,15.53-2.68,16.73-8.53A57.74,57.74,0,0,1,52.9,152.4,54.2,54.2,0,0,1,37.55,150.21Z" /><path d="M41.42,1.09a51.41,51.41,0,0,0-40.2,39.7A52,52,0,0,0,13.41,86.85,57.43,57.43,0,0,1,21,97.65c2.67-7.06,6.89-12.89,13.25-16.56,1.81-1,20.45-5.2,22.5-5.62C68.61,73,88.09,61,92.79,56.35c5.17-5.18-4.9,32.53-45.13,43.82a15.22,15.22,0,0,0-11.12,14.64v2.28s22.5-2.25,29.24-6.75-9,28.12-29.24,28.12c0,0,.27,2,.55,5.09a50.53,50.53,0,0,0,32.15,0c0-3.31-.18-7.2-.18-11.71,0-6.72,5.71-19.27,13-32.63q.38-.67.72-1.38a41.05,41.05,0,0,1,7-10.09A52,52,0,0,0,41.42,1.09Z" /><polygon points="108.63 158.28 129.3 158.28 129.3 133.42 147.92 133.42 147.92 117.87 129.3 117.87 129.3 108.74 155.19 108.74 155.19 92.35 108.63 92.35 108.63 158.28" /><path d="M211.34,95.57a35.81,35.81,0,0,0-34.13,0,32.32,32.32,0,0,0-12.34,12,35.53,35.53,0,0,0,0,34.83,32.75,32.75,0,0,0,12.34,12.11,35.39,35.39,0,0,0,34.08,0,32.48,32.48,0,0,0,12.29-12.11,35.84,35.84,0,0,0,0-34.83A32.13,32.13,0,0,0,211.34,95.57Zm-7.55,40.13q-3.34,4-9.49,4t-9.59-4q-3.36-4-3.36-10.66t3.36-10.76q3.34-4,9.59-4t9.49,4q3.36,4,3.36,10.76T203.79,135.7Z" /><path d="M287.65,125.69A19.64,19.64,0,0,0,291.33,114a21.65,21.65,0,0,0-2.84-11A19.9,19.9,0,0,0,280,95.23a30.37,30.37,0,0,0-13.69-2.84H235.55v65.93h20.67V134.63l12.48,23.65h22.72L277,133.09A20.24,20.24,0,0,0,287.65,125.69Zm-18.77-6.19a6.49,6.49,0,0,1-4.47,1.35h-8.19V109.67h8.19a6.15,6.15,0,0,1,4.43,1.49,6.52,6.52,0,0,1,0,8.34Z" /><polygon points="297.94 158.28 341.89 158.28 341.89 141.8 318.61 141.8 318.61 132.49 339.1 132.49 339.1 116.94 318.61 116.94 318.61 108.74 341.89 108.74 341.89 92.35 297.94 92.35 297.94 158.28" /><polygon points="392.27 126.06 370.38 92.35 349.71 92.35 349.71 158.28 370.38 158.28 370.38 125.13 392.27 158.28 412.94 158.28 412.94 92.35 392.27 92.35 392.27 126.06" /><polygon points="418.53 108.74 435.85 108.74 435.85 158.28 456.52 158.28 456.52 108.74 474.03 108.74 474.03 92.35 418.53 92.35 418.53 108.74" /><path d="M541,107.62a32.13,32.13,0,0,0-12.24-12,35.81,35.81,0,0,0-34.13,0,32.32,32.32,0,0,0-12.34,12,35.53,35.53,0,0,0,0,34.83,32.75,32.75,0,0,0,12.34,12.11,35.39,35.39,0,0,0,34.08,0A32.48,32.48,0,0,0,541,142.45,35.84,35.84,0,0,0,541,107.62Zm-19.8,28.08q-3.36,4-9.5,4t-9.59-4q-3.36-4-3.35-10.66t3.35-10.76q3.33-4,9.59-4t9.5,4q3.33,4,3.35,10.76T521.24,135.7Z" /></g></svg>